<?xml version="1.0" standalone="no"?>
<!DOCTYPE svg PUBLIC "-//W3C//DTD SVG 20010904//EN"
 "http://www.w3.org/TR/2001/REC-SVG-20010904/DTD/svg10.dtd">
<svg version="1.0" xmlns="http://www.w3.org/2000/svg"
 width="329.000000pt" height="329.000000pt" viewBox="0 0 329.000000 329.000000"
 preserveAspectRatio="xMidYMid meet">
<metadata>
Created by potrace 1.14, written by Peter Selinger 2001-2017
</metadata>
<g transform="translate(0.000000,329.000000) scale(0.100000,-0.100000)"
fill="#000000" stroke="none">
<path d="M1715 3283 c-94 -11 -232 -37 -315 -59 -455 -119 -825 -404 -1032
-794 -36 -68 -88 -184 -93 -210 -2 -8 -10 -34 -19 -57 -20 -56 -56 -223 -64
-298 -9 -80 -9 -376 0 -447 11 -84 36 -201 60 -276 12 -37 22 -71 24 -77 1 -5
19 -50 41 -100 225 -518 718 -869 1338 -952 73 -10 469 -9 545 1 184 24 397
86 553 161 270 130 355 236 345 434 -3 70 -10 99 -32 144 -35 72 -122 159
-195 194 -49 25 -67 28 -151 28 -107 0 -133 -8 -233 -72 -192 -122 -338 -164
-552 -158 -60 1 -122 6 -137 10 -23 6 -26 10 -18 29 5 13 7 48 5 79 -10 146
-94 232 -271 276 -326 81 -507 272 -500 527 2 91 7 110 40 179 35 70 106 147
184 198 88 57 149 82 251 101 106 20 155 43 208 94 65 64 99 166 83 252 -4 22
-5 40 -1 41 3 0 17 3 31 6 14 3 81 6 150 6 198 2 339 -39 508 -146 109 -68
167 -89 258 -89 59 -1 83 4 136 29 80 38 165 120 204 199 26 54 29 68 29 164
0 94 -3 111 -27 160 -48 97 -109 148 -285 237 -166 85 -331 138 -528 169 -93
15 -460 27 -540 17z"/>
<path d="M1518 2072 c-39 -5 -75 -44 -88 -93 -34 -136 -67 -178 -158 -204 -92
-26 -113 -37 -133 -69 -23 -38 -24 -68 -3 -111 18 -38 58 -60 124 -70 106 -16
144 -60 165 -194 13 -78 54 -116 126 -114 57 1 109 56 109 113 0 61 -44 103
-130 125 -87 24 -146 78 -165 153 -16 60 -3 110 40 155 41 44 78 64 144 78 86
18 128 88 98 161 -22 53 -68 78 -129 70z"/>
<path d="M1227 1972 c-33 -36 -11 -92 35 -92 50 0 76 61 40 93 -24 22 -55 21
-75 -1z"/>
<path d="M1603 1789 c-13 -5 -23 -17 -23 -27 0 -29 -37 -70 -70 -77 -17 -4
-32 -15 -35 -26 -9 -26 20 -59 50 -59 28 0 43 -17 51 -59 4 -17 15 -36 25 -42
27 -14 59 6 59 37 0 20 -9 28 -43 43 -79 34 -81 97 -2 131 36 16 45 24 45 44
0 31 -27 47 -57 35z"/>
<path d="M1500 1753 c0 -17 19 -35 29 -29 18 12 12 36 -9 36 -11 0 -20 -3 -20
-7z"/>
<path d="M1505 1560 c-8 -14 3 -30 21 -30 8 0 14 9 14 20 0 21 -24 28 -35 10z"/>
<path d="M1225 1410 c-18 -19 -19 -43 -5 -71 21 -38 100 -15 100 29 0 50 -62
78 -95 42z"/>
</g>
</svg>
